<svg width="175" height="42" viewBox="0 0 175 42" fill="none" xmlns="http://www.w3.org/2000/svg">
<g clip-path="url(#clip0_14_106)">
<path d="M18.971 41.0824C31.8212 41.0824 40.5647 32.9544 41.7041 20.1444C42.828 7.5111 35.7339 0.00177002 22.97 0.00177002C10.1204 0.00177002 1.25103 7.5991 0.119401 20.3211C-0.446413 26.6818 1.00316 31.7178 4.37339 35.5164C7.75205 39.2271 12.675 41.0824 18.971 41.0824Z" fill="#48448F"/>
<path fill-rule="evenodd" clip-rule="evenodd" d="M29.2757 23.5066L28.9746 16.7813L19.0904 17.1433L29.2757 12.9233L26.9728 6.67596L12.5446 12.1906V34.4086H19.0904V23.9406L29.2757 23.5066Z" fill="#FF6B6B"/>
<path d="M69.6113 13.0613H55.9293L54.03 34.4086H59.7998L60.4461 27.1419H66.2781L66.6778 22.6533H60.8451L61.2734 17.8413H69.1863L69.6113 13.0613Z" fill="#FF6B6B"/>
<path d="M73.2937 34.8279C74.5862 34.8279 75.7444 34.5699 76.7015 34.0853L76.7937 30.9206C76.6334 30.9526 76.4413 30.9853 76.1578 30.9853C75.2435 30.9853 74.9308 30.5979 75.043 29.3379L76.5919 11.9313H71.1057L69.4744 30.2746C69.1668 33.7299 70.5191 34.8279 73.2937 34.8279Z" fill="#FF6B6B"/>
<path d="M82.5692 34.828C83.8929 34.828 85.0512 34.57 86.0089 34.0853L86.101 30.9206C85.9408 30.9526 85.7169 30.9846 85.4334 30.9846C84.5191 30.9846 84.244 30.5326 84.3504 29.338L85.1602 20.23H79.6746L78.7811 30.2746C78.4736 33.73 79.8258 34.828 82.5692 34.828Z" fill="#FF6B6B"/>
<path d="M84.8915 17.2266C85.545 16.6126 85.9291 15.838 86.0069 14.9653C86.0848 14.0933 85.8356 13.3506 85.2912 12.7373C84.1732 11.4773 82.2189 11.4773 80.877 12.7373C80.2236 13.3506 79.8738 14.0933 79.796 14.9653C79.7181 15.838 79.9329 16.6126 80.4779 17.2266C81.5953 18.486 83.5497 18.486 84.8915 17.2266Z" fill="#FF6B6B"/>
<path d="M97.9403 19.8113C96.2695 19.8113 94.8043 20.3279 93.5488 21.3293L93.079 20.2313H88.6342L86.698 41.9979H92.1835L92.8642 34.3439C93.6863 34.6666 94.5552 34.8286 95.5324 34.8286C97.6133 34.8286 99.3756 34.1499 100.849 32.8259C102.325 31.4699 103.192 29.5319 103.418 26.9806C103.812 22.5566 101.818 19.8113 97.9403 19.8113ZM94.7849 30.4686C94.4066 30.4686 93.8764 30.4039 93.2263 30.2746L93.7058 24.8813C94.4624 24.5259 95.1417 24.3326 95.7724 24.3326C97.3174 24.3326 98.0162 25.3339 97.8384 27.3359C97.6626 29.3059 96.5193 30.4686 94.7849 30.4686Z" fill="#FF6B6B"/>
<path d="M162.341 27.2713C164.852 25.6239 166.354 23.2666 166.814 20.2313H161.644C161.225 22.4593 160.02 23.9446 158.063 24.6879L159.197 11.9313H153.712L151.713 34.4086H157.198L157.669 29.1119L158.056 29.0153C159.222 32.9226 161.448 34.8279 165.736 34.8279L167.258 30.1133C165.545 29.8873 163.433 28.8213 162.341 27.2713Z" fill="#FF6B6B"/>
<path d="M142.653 34.8279C147.35 34.8279 150.547 31.8566 150.963 27.1739C151.374 22.5553 148.781 19.8099 144.114 19.8099C140.568 19.8099 137.852 21.3926 136.556 24.1693C135.808 21.3899 133.461 19.8099 129.922 19.8099C125.224 19.8099 121.982 22.5879 121.568 27.2386C121.361 29.5639 121.891 31.4046 123.124 32.7933C124.358 34.1499 126.158 34.8279 128.46 34.8279C132.004 34.8279 134.693 33.1373 135.979 30.2959C136.237 31.2499 136.684 32.0813 137.316 32.7933C138.551 34.1499 140.351 34.8279 142.653 34.8279ZM128.897 30.6299C127.667 30.6299 126.965 29.3053 127.152 27.2059C127.333 25.1713 128.224 24.0086 129.485 24.0086C130.746 24.0086 131.397 25.2039 131.216 27.2386C131.032 29.3053 130.157 30.6299 128.897 30.6299ZM143.089 30.6299C141.86 30.6299 141.158 29.3053 141.344 27.2059C141.526 25.1713 142.417 24.0086 143.678 24.0086C144.939 24.0086 145.589 25.2039 145.408 27.2386C145.225 29.3053 144.35 30.6299 143.089 30.6299Z" fill="#FF6B6B"/>
<path d="M114.719 19.8113C113.3 19.8113 112.005 20.1986 110.835 20.9413L111.637 11.9313H106.151L104.151 34.4086H108.408L108.68 33.8273C109.723 34.5053 110.924 34.8279 112.311 34.8279C114.392 34.8279 116.155 34.1499 117.628 32.8259C119.104 31.4699 119.97 29.5319 120.197 26.9806C120.59 22.5559 118.533 19.8113 114.719 19.8113ZM111.532 30.4686C110.965 30.4686 110.466 30.4039 110.005 30.2746L110.485 24.8813C111.179 24.5259 111.858 24.3326 112.52 24.3326C114.064 24.3326 114.764 25.3339 114.585 27.3359C114.41 29.3059 113.267 30.4686 111.532 30.4686Z" fill="#FF6B6B"/>
<path d="M173.077 12.8693C172.495 12.8693 172.024 13.0453 171.669 13.404C171.313 13.7567 171.136 14.222 171.136 14.8073C171.136 15.392 171.313 15.864 171.669 16.2227C172.024 16.5813 172.489 16.7573 173.071 16.7573C173.646 16.7573 174.112 16.5753 174.467 16.2167C174.822 15.8513 175 15.3793 175 14.8007C175 14.222 174.822 13.7567 174.467 13.404C174.118 13.0453 173.652 12.8693 173.077 12.8693ZM173.071 13.184C173.548 13.184 173.935 13.3347 174.228 13.6307C174.528 13.926 174.675 14.3227 174.675 14.8133C174.675 15.304 174.528 15.7007 174.234 16.0027C173.946 16.3047 173.554 16.4553 173.071 16.4553C172.587 16.4553 172.195 16.3047 171.901 16.0027C171.614 15.7007 171.466 15.304 171.466 14.8073C171.466 14.3227 171.614 13.926 171.908 13.6307C172.201 13.3347 172.587 13.184 173.071 13.184ZM173.132 15.1593C173.591 15.1153 173.91 14.8573 173.91 14.3853C173.91 13.8887 173.591 13.6433 172.955 13.6433H172.416V15.8453H172.709V15.166H172.863C172.955 15.3733 173.083 15.5433 173.242 15.6753C173.401 15.8073 173.634 15.8707 173.946 15.8707L173.965 15.6C173.597 15.6 173.322 15.4553 173.132 15.1593ZM172.966 13.876C173.395 13.876 173.609 14.052 173.609 14.398C173.609 14.7693 173.303 14.9393 172.985 14.9393H172.709V13.876H172.966Z" fill="#FF6B6B"/>
</g>
<defs>
<clipPath id="clip0_14_106">
<rect width="175" height="42" fill="white"/>
</clipPath>
</defs>
</svg>
