<svg width="175" height="42" viewBox="0 0 175 42" fill="none" xmlns="http://www.w3.org/2000/svg">
<g clip-path="url(#clip0_14_107)">
<path d="M18.971 41.0826C31.8212 41.0826 40.5647 32.9546 41.7041 20.1446C42.828 7.51129 35.7339 0.00195312 22.97 0.00195312C10.1204 0.00195312 1.25103 7.59929 0.119401 20.3213C-0.446413 26.682 1.00316 31.718 4.37339 35.5166C7.75205 39.2273 12.675 41.0826 18.971 41.0826Z" fill="#3B3A6D"/>
<path fill-rule="evenodd" clip-rule="evenodd" d="M29.2757 23.5067L28.9746 16.7814L19.0904 17.1434L29.2757 12.9234L26.9728 6.67603L12.5446 12.1907V34.4087H19.0904V23.9407L29.2757 23.5067Z" fill="#FDFDFD"/>
<path d="M69.6113 13.0613H55.9293L54.03 34.4087H59.7998L60.4461 27.142H66.2781L66.6778 22.6533H60.8451L61.2734 17.8413H69.1863L69.6113 13.0613Z" fill="#3B3A6D"/>
<path d="M73.2937 34.828C74.5862 34.828 75.7444 34.57 76.7015 34.0853L76.7937 30.9207C76.6334 30.9527 76.4413 30.9853 76.1578 30.9853C75.2435 30.9853 74.9308 30.598 75.043 29.338L76.5919 11.9313H71.1057L69.4744 30.2747C69.1668 33.73 70.5191 34.828 73.2937 34.828Z" fill="#3B3A6D"/>
<path d="M82.5692 34.828C83.8929 34.828 85.0512 34.57 86.0089 34.0854L86.101 30.9207C85.9408 30.9527 85.7169 30.9847 85.4334 30.9847C84.5191 30.9847 84.244 30.5327 84.3504 29.338L85.1602 20.23H79.6746L78.7811 30.2747C78.4736 33.73 79.8258 34.828 82.5692 34.828Z" fill="#3B3A6D"/>
<path d="M84.8915 17.2267C85.545 16.6127 85.9291 15.838 86.0069 14.9654C86.0848 14.0934 85.8356 13.3507 85.2912 12.7374C84.1732 11.4774 82.2189 11.4774 80.877 12.7374C80.2236 13.3507 79.8738 14.0934 79.796 14.9654C79.7181 15.838 79.9329 16.6127 80.4779 17.2267C81.5953 18.486 83.5497 18.486 84.8915 17.2267Z" fill="#3B3A6D"/>
<path d="M97.9403 19.8113C96.2695 19.8113 94.8043 20.328 93.5488 21.3293L93.079 20.2313H88.6342L86.698 41.998H92.1835L92.8642 34.344C93.6863 34.6667 94.5552 34.8287 95.5324 34.8287C97.6133 34.8287 99.3756 34.15 100.849 32.826C102.325 31.47 103.192 29.532 103.418 26.9807C103.812 22.5567 101.818 19.8113 97.9403 19.8113ZM94.7849 30.4687C94.4066 30.4687 93.8764 30.404 93.2263 30.2747L93.7058 24.8813C94.4624 24.526 95.1417 24.3327 95.7724 24.3327C97.3174 24.3327 98.0162 25.334 97.8384 27.336C97.6626 29.306 96.5193 30.4687 94.7849 30.4687Z" fill="#3B3A6D"/>
<path d="M162.341 27.2713C164.852 25.624 166.354 23.2667 166.814 20.2313H161.644C161.225 22.4593 160.02 23.9447 158.063 24.688L159.197 11.9313H153.712L151.713 34.4087H157.198L157.669 29.112L158.056 29.0153C159.222 32.9227 161.448 34.828 165.736 34.828L167.258 30.1133C165.545 29.8873 163.433 28.8213 162.341 27.2713Z" fill="#3B3A6D"/>
<path d="M142.653 34.828C147.35 34.828 150.547 31.8567 150.963 27.174C151.374 22.5553 148.781 19.81 144.114 19.81C140.568 19.81 137.852 21.3927 136.556 24.1693C135.808 21.39 133.461 19.81 129.922 19.81C125.224 19.81 121.982 22.588 121.568 27.2387C121.361 29.564 121.891 31.4047 123.124 32.7933C124.358 34.15 126.158 34.828 128.46 34.828C132.004 34.828 134.693 33.1373 135.979 30.296C136.237 31.25 136.684 32.0813 137.316 32.7933C138.551 34.15 140.351 34.828 142.653 34.828ZM128.897 30.63C127.667 30.63 126.965 29.3053 127.152 27.206C127.333 25.1713 128.224 24.0087 129.485 24.0087C130.746 24.0087 131.397 25.204 131.216 27.2387C131.032 29.3053 130.157 30.63 128.897 30.63ZM143.089 30.63C141.86 30.63 141.158 29.3053 141.344 27.206C141.526 25.1713 142.417 24.0087 143.678 24.0087C144.939 24.0087 145.589 25.204 145.408 27.2387C145.225 29.3053 144.35 30.63 143.089 30.63Z" fill="#3B3A6D"/>
<path d="M114.719 19.8113C113.3 19.8113 112.005 20.1987 110.835 20.9413L111.637 11.9313H106.151L104.151 34.4087H108.408L108.68 33.8273C109.723 34.5053 110.924 34.828 112.311 34.828C114.392 34.828 116.155 34.15 117.628 32.826C119.104 31.47 119.97 29.532 120.197 26.9807C120.59 22.556 118.533 19.8113 114.719 19.8113ZM111.532 30.4687C110.965 30.4687 110.466 30.404 110.005 30.2747L110.485 24.8813C111.179 24.526 111.858 24.3327 112.52 24.3327C114.064 24.3327 114.764 25.334 114.585 27.336C114.41 29.306 113.267 30.4687 111.532 30.4687Z" fill="#3B3A6D"/>
<path d="M173.077 12.8694C172.495 12.8694 172.024 13.0454 171.669 13.4041C171.313 13.7567 171.136 14.2221 171.136 14.8074C171.136 15.3921 171.313 15.8641 171.669 16.2227C172.024 16.5814 172.489 16.7574 173.071 16.7574C173.646 16.7574 174.112 16.5754 174.467 16.2167C174.822 15.8514 175 15.3794 175 14.8007C175 14.2221 174.822 13.7567 174.467 13.4041C174.118 13.0454 173.652 12.8694 173.077 12.8694ZM173.071 13.1841C173.548 13.1841 173.935 13.3347 174.228 13.6307C174.528 13.9261 174.675 14.3227 174.675 14.8134C174.675 15.3041 174.528 15.7007 174.234 16.0027C173.946 16.3047 173.554 16.4554 173.071 16.4554C172.587 16.4554 172.195 16.3047 171.901 16.0027C171.614 15.7007 171.466 15.3041 171.466 14.8074C171.466 14.3227 171.614 13.9261 171.908 13.6307C172.201 13.3347 172.587 13.1841 173.071 13.1841ZM173.132 15.1594C173.591 15.1154 173.91 14.8574 173.91 14.3854C173.91 13.8887 173.591 13.6434 172.955 13.6434H172.416V15.8454H172.709V15.1661H172.863C172.955 15.3734 173.083 15.5434 173.242 15.6754C173.401 15.8074 173.634 15.8707 173.946 15.8707L173.965 15.6001C173.597 15.6001 173.322 15.4554 173.132 15.1594ZM172.966 13.8761C173.395 13.8761 173.609 14.0521 173.609 14.3981C173.609 14.7694 173.303 14.9394 172.985 14.9394H172.709V13.8761H172.966Z" fill="#3B3A6D"/>
</g>
<defs>
<clipPath id="clip0_14_107">
<rect width="175" height="42" fill="white"/>
</clipPath>
</defs>
</svg>
