<svg width="64" height="61" viewBox="0 0 64 61" fill="none" xmlns="http://www.w3.org/2000/svg">
<g clip-path="url(#clip0_18_78)">
<path d="M61.9266 29.8391L63.813 30.0164L63.6172 31.7627L63.354 33.4693L63.0253 35.1345L62.6319 36.759L62.1738 38.3403L61.6519 39.8784L61.0671 41.3705L60.4212 42.8177L59.715 44.2181L58.9485 45.5691L58.1227 46.8716L57.2393 48.1246L56.2992 49.3247L55.3032 50.4727L54.2533 51.5678L53.1483 52.6073L51.992 53.5912L50.7834 54.5186L49.5261 55.3869L48.2182 56.1979L46.8634 56.9479L45.4617 57.6371L44.0139 58.2654L42.5226 58.831L40.987 59.3322L39.4107 59.7699L37.7919 60.1432L36.1341 60.4494L34.4372 60.6894L32.7023 60.8615L30.9311 60.9656L29.1235 61L29.1182 59.1143L30.8513 59.0807L32.5473 58.981L34.2051 58.8169L35.8231 58.5883L37.4011 58.2963L38.9385 57.9424L40.4333 57.5277L41.8855 57.0529L43.2953 56.5191L44.6598 55.927L45.98 55.2775L47.2542 54.5716L48.4823 53.81L49.6634 52.9947L50.7967 52.1255L51.8804 51.2025L52.9162 50.2283L53.9006 49.202L54.8345 48.1255L55.7161 46.9995L56.5464 45.8232L57.3217 44.5984L58.043 43.326L58.7093 42.0068L59.3198 40.6408L59.8718 39.2289L60.3662 37.772L60.8013 36.271L61.1752 34.7268L61.4889 33.1393L61.7396 31.5104L61.9266 29.8391ZM35.061 1.88573L35.0557 0L36.8411 0.0317672L38.5796 0.128833L40.2685 0.288552L41.9077 0.511804L43.4955 0.797709L45.0328 1.14538L46.5179 1.55571L47.9498 2.0278L49.3285 2.56167L50.6514 3.15554L51.9185 3.80941L53.1288 4.52417L54.2816 5.29717L55.3741 6.1293L56.4064 7.01966L57.3775 7.9665L58.2857 8.96893L59.1293 10.0269L59.909 11.1388L60.6223 12.3036L61.2682 13.5196L61.8477 14.7867L62.359 16.1024L62.8011 17.4675L63.1742 18.8794L63.4781 20.3372L63.712 21.8417L63.8751 23.3903L63.9663 24.9822L63.9876 26.6182L63.9362 28.2966L63.813 30.0164L61.9266 29.8391L62.0453 28.1942L62.0941 26.5953L62.0746 25.0422L61.9869 23.5368L61.8336 22.0782L61.6147 20.6672L61.3312 19.3056L60.9838 17.9917L60.5745 16.7281L60.1022 15.513L59.5697 14.3482L58.9769 13.2328L58.3238 12.1668L57.6123 11.1512L56.8423 10.1858L56.013 9.26983L55.1269 8.40506L54.1824 7.59147L53.1802 6.82817L52.1205 6.11694L51.004 5.45866L49.8309 4.85243L48.601 4.30004L47.3145 3.80235L45.973 3.36026L44.5756 2.97464L43.1234 2.6455L41.617 2.37371L40.0567 2.16193L38.4432 2.00927L36.7782 1.91662L35.061 1.88573ZM2.07717 30.2706L0.19162 30.0941L0.387441 28.3601L0.650603 26.6694L0.981106 25.0228L1.37806 23.4212L1.84059 21.8637L2.3678 20.353L2.95792 18.89L3.61007 17.4737L4.32512 16.1068L5.09955 14.7903L5.93422 13.5231L6.82649 12.3089L7.77547 11.1459L8.78116 10.0367L9.84178 8.98128L10.9556 7.98062L12.1216 7.03642L13.3391 6.14783L14.6053 5.31659L15.9211 4.54359L17.2839 3.82882L18.6927 3.17319L20.1467 2.57843L21.6433 2.0428L23.1833 1.56806L24.7649 1.15509L26.3855 0.804768L28.046 0.516216L29.7437 0.291199L31.4795 0.129716L33.2499 0.0326496L35.0557 0L35.061 1.88573L33.3243 1.9175L31.6249 2.01104L29.9626 2.16546L28.3384 2.38077L26.7541 2.65609L25.2106 2.98964L23.7079 3.38232L22.2476 3.83147L20.8308 4.33798L19.4574 4.90097L18.1292 5.51866L16.847 6.19107L15.611 6.91818L14.4219 7.69736L13.2815 8.53036L12.1899 9.41455L11.147 10.3508L10.1554 11.3382L9.21533 12.376L8.32661 13.4631L7.49104 14.6005L6.70953 15.7874L5.98296 17.0228L5.3122 18.3067L4.69727 19.6392L4.14082 21.0184L3.64374 22.4453L3.20602 23.9189L2.82944 25.4393L2.51489 27.0047L2.26413 28.6151L2.07717 30.2706ZM8.14053 51.4054L6.75915 52.6911L6.75118 52.6823L6.2727 52.1449L5.81195 51.596L5.36714 51.0366L4.94094 50.4657L4.53158 49.8833L4.13905 49.2903L3.76513 48.6858L3.40804 48.0708L3.06868 47.4442L2.74704 46.8071L2.44312 46.1594L2.15692 45.5003L1.88933 44.8314L1.63857 44.1502L1.40642 43.4592L1.19199 42.7577L0.994397 42.0456L0.816297 41.322L0.655033 40.5887L0.512376 39.8448L0.387441 39.0895L0.280227 38.3244L0.190734 37.5488L0.119848 36.7625L0.0657983 35.9657L0.0303556 35.1583L0.0126343 34.3412V33.5126L0.0303556 32.6734L0.0666844 31.8245L0.119848 30.9642L0.19162 30.0941L2.07717 30.2706L2.00894 31.1053L1.95755 31.9278L1.923 32.7387L1.90616 33.5391V34.3262L1.923 35.1027L1.95667 35.8678L2.00717 36.6205L2.07451 37.3626L2.15869 38.0924L2.25882 38.8115L2.37666 39.5192L2.51046 40.2155L2.6602 40.9011L2.82678 41.5744L3.0102 42.238L3.20957 42.8901L3.42577 43.5316L3.65703 44.1616L3.90513 44.7811L4.17006 45.39L4.45095 45.9891L4.74778 46.5768L5.06056 47.1548L5.38929 47.7222L5.73486 48.2799L6.09637 48.827L6.47472 49.3635L6.86902 49.8912L7.27927 50.4083L7.70547 50.9166L8.14851 51.4143L8.14053 51.4054ZM8.14851 51.4143C8.50116 51.799 8.47458 52.3955 8.08914 52.7458C7.70281 53.0962 7.10383 53.0679 6.75118 52.6823L8.14851 51.4143ZM29.1182 59.1143L29.1235 61L28.2357 60.9921L27.3602 60.9682L26.4954 60.9285L25.643 60.872L24.8021 60.8006L23.9728 60.7123L23.1549 60.6082L22.3486 60.4873L21.5547 60.3514L20.7732 60.1979L20.0032 60.0293L19.2447 59.844L18.4987 59.642L17.765 59.424L17.0437 59.1902L16.3349 58.9395L15.6384 58.6722L14.9544 58.3889L14.2836 58.088L13.6253 57.7721L12.9793 57.4385L12.3467 57.0891L11.7273 56.7229L11.1213 56.3408L10.5285 55.942L9.94811 55.5263L9.3828 55.0948L8.82989 54.6466L8.29116 54.1824L7.76661 53.7015L7.25624 53.2047L6.75915 52.6911L8.14053 51.4054L8.59774 51.8775L9.06736 52.3346L9.55026 52.7767L10.0456 53.2038L10.5533 53.6159L11.0743 54.0139L11.6077 54.396L12.1544 54.763L12.7135 55.116L13.2859 55.454L13.8698 55.777L14.4679 56.0858L15.0784 56.3788L15.7022 56.6576L16.3384 56.9214L16.9879 57.1703L17.6498 57.405L18.325 57.6239L19.0126 57.8286L19.7135 58.0183L20.4267 58.1921L21.1533 58.3519L21.8932 58.4966L22.6446 58.6254L23.4101 58.7401L24.1872 58.8389L24.9776 58.9228L25.7804 58.9916L26.5964 59.0454L27.424 59.0834L28.2649 59.1063L29.1182 59.1143Z" fill="#E4B363"/>
<path d="M43.024 25.1313L43.9376 24.1439L44.9184 25.0449L45.3659 34.7224L43.4715 34.8097L43.024 25.1313ZM43.9376 24.1439L44.8759 24.1112L44.9184 25.0449L43.9376 24.1439ZM29.3316 26.552L28.9435 24.7334L29.2643 24.6654L43.9376 24.1439L44.0058 26.0314L29.3316 26.552ZM29.3316 26.552L23.9355 26.7444L28.9435 24.7334L29.3316 26.552ZM44.0643 18.6605L45.3056 19.2023L44.7731 20.4121L29.6524 26.485L28.9435 24.7334L44.0643 18.6605ZM45.3056 19.2023L45.6344 20.0662L44.7731 20.4121L45.3056 19.2023ZM40.1133 10.8811L40.6697 9.66161L41.8872 10.2122L45.3056 19.2023L43.5317 19.8712L40.1133 10.8811ZM40.6697 9.66161L41.5532 9.33423L41.8872 10.2122L40.6697 9.66161ZM19.9101 19.3674L18.6315 18.4823L19.2491 17.5972L40.6697 9.66161L41.3307 11.4317L19.9101 19.3674ZM18.6315 18.4823V17.8258L19.2491 17.5972L18.6315 18.4823ZM20.5277 50.4533L19.5796 51.3975L18.6315 50.4533V18.4823H20.5277V50.4533ZM19.5796 51.3975H18.6315V50.4533L19.5796 51.3975ZM29.298 49.5091L30.246 50.4542L29.298 51.3984L19.5796 51.3975V49.5091H29.298ZM30.246 50.4542V51.3984H29.298L30.246 50.4542ZM28.3499 35.3904L29.259 34.447L30.246 35.3904V50.4542H28.3499V35.3904ZM28.3499 35.3904V34.4841L29.259 34.447L28.3499 35.3904ZM44.3797 33.8223L45.3659 34.7224L44.4577 35.7098L29.3369 36.3337L29.259 34.447L44.3797 33.8223ZM45.3659 34.7224L45.4102 35.6701L44.4577 35.7098L45.3659 34.7224Z" fill="#E4B363"/>
</g>
<defs>
<clipPath id="clip0_18_78">
<rect width="64" height="61" fill="white"/>
</clipPath>
</defs>
</svg>
